<svg width="180" height="180" viewBox="0 0 180 180" fill="none" xmlns="http://www.w3.org/2000/svg" class="favicon">
<g clip-path="url(#clip0_373_3430)">
<rect width="180" height="180" rx="22.5" fill="#111" class="favicon__bg"/>
<path d="M160.303 70.6912L168.61 65.9446C179.125 59.9361 185.614 48.754 185.614 36.6434V-78.7627L208.156 -91.6438C215.655 -95.9292 224.986 -90.5141 224.986 -81.8767V59.1418C224.986 71.2524 218.497 82.4345 207.982 88.443L67.4973 168.72L28.125 146.222L54.8419 130.754L106.87 101.225L160.303 70.6912ZM160.303 70.6912L126.361 90.031M160.306 70.6822L168.613 65.9355C179.128 59.927 185.617 48.7449 185.617 36.6344V-8.3625C185.617 3.74808 179.128 14.9301 168.613 20.9387L123.703 46.6015C116.203 50.8869 106.872 45.4719 106.872 36.8345V-14.1903C106.872 -26.3009 113.361 -37.483 123.876 -43.4915L208.159 -91.6528C215.658 -95.9382 224.989 -90.5231 224.989 -81.8857V59.1328C224.989 71.2434 218.5 82.4254 207.985 88.434L67.5 168.711V213.708L236.021 117.41C253.546 107.396 264.361 88.7592 264.361 68.5749V-100.92C264.361 -116.125 256.1 -128.477 244.547 -135.091M160.306 70.6822L126.364 90.022C100.117 104.978 67.5 86.0225 67.5 55.8131V-23.6324C67.5 -43.8167 78.3153 -62.4535 95.8402 -72.4677L205.455 -135.105C218.479 -142.547 233.082 -141.63 244.49 -135.124L244.547 -135.091M160.306 70.6822L106.872 101.216M244.547 -135.091L244.675 -135.018M86.3063 89.4211L45.1291 65.9714C34.6142 59.9629 28.125 48.7808 28.125 36.6703V-46.095C28.125 -66.2793 38.9403 -84.9161 56.4652 -94.9303L168.871 -159.162C179.246 -165.091 191.982 -165.091 202.358 -159.162L244.487 -135.088C233.079 -141.594 218.476 -142.511 205.452 -135.069L95.8375 -72.4319C78.3126 -62.4176 67.4973 -43.7808 67.4973 -23.5965V55.849C67.0491 63.1594 70.2864 79.6426 86.3063 89.4211ZM86.3063 89.4211L88.5896 90.7213C87.8011 90.303 87.0403 89.8691 86.3063 89.4211ZM28.125 146.249V191.246L67.4973 213.744V168.747L28.125 146.249ZM185.62 -78.7939L146.247 -56.2955V-30.8831C146.247 -18.7726 139.758 -7.5905 129.243 -1.58197L106.875 11.1998V36.8123C106.875 45.4497 116.206 50.8647 123.705 46.5793L168.615 20.9165C179.13 14.9079 185.62 3.72588 185.62 -8.3847V-78.7939ZM185.625 -213.752L224.997 -236.25V-146.256L202.369 -159.187C197.181 -162.151 191.403 -163.633 185.625 -163.633V-213.752ZM146.25 -236.25L185.622 -213.752V-163.633C179.844 -163.633 174.066 -162.151 168.879 -159.187L146.25 -146.256V-236.25ZM146.25 -236.252L185.622 -213.753L224.995 -236.252L185.622 -258.75L146.25 -236.252Z" stroke="#111" stroke-width="8.43692" stroke-linecap="round" stroke-linejoin="round" fill="white" class="favicon__main"/>
</g>
<defs>
<clipPath id="clip0_373_3430">
<rect width="180" height="180" rx="22.5" fill="white"/>
</clipPath>
</defs>
</svg>
